<?xml version="1.0" standalone="no"?>
<!DOCTYPE svg PUBLIC "-//W3C//DTD SVG 20010904//EN"
 "http://www.w3.org/TR/2001/REC-SVG-20010904/DTD/svg10.dtd">
<svg version="1.0" xmlns="http://www.w3.org/2000/svg"
 width="523.000000pt" height="387.000000pt" viewBox="0 0 523.000000 387.000000"
 preserveAspectRatio="xMidYMid meet">

<g transform="translate(0.000000,387.000000) scale(0.100000,-0.100000)"
fill="#000000" stroke="none">
<path d="M3710 2412 c-69 -34 -70 -42 -70 -454 l0 -368 -47 0 c-67 0 -77 -9
-70 -59 10 -80 77 -137 167 -142 25 -1 311 -2 637 -1 l591 2 44 33 c28 21 49
49 62 80 27 64 16 80 -55 87 l-54 5 -5 375 c-5 407 -5 405 -63 440 -31 19 -55
20 -567 20 -489 0 -538 -2 -570 -18z m1129 -69 c21 -25 21 -34 19 -387 l-3
-361 -218 -5 c-195 -4 -220 -7 -228 -22 -9 -16 -26 -18 -134 -18 -114 0 -125
2 -135 20 -10 18 -23 20 -227 22 l-217 3 2 370 c1 365 2 370 23 388 20 16 62
17 559 17 l539 0 20 -27z m-726 -833 c15 -18 29 -20 162 -20 132 0 147 2 165
20 19 19 33 20 275 20 272 0 282 -2 233 -47 -48 -43 -43 -43 -668 -43 -645 0
-648 0 -684 51 -9 13 -16 27 -16 31 0 5 116 8 258 8 245 0 258 -1 275 -20z"/>
<path d="M4060 2150 c-23 -23 -25 -42 -9 -73 23 -43 66 -50 99 -17 40 40 11
110 -45 110 -14 0 -34 -9 -45 -20z"/>
<path d="M4400 2150 c-40 -40 -11 -110 45 -110 32 0 65 33 65 65 0 32 -33 65
-65 65 -14 0 -34 -9 -45 -20z"/>
<path d="M3924 1947 c-44 -40 -42 -73 3 -64 20 4 38 -4 75 -33 82 -65 145 -84
278 -85 108 0 119 2 180 31 36 17 81 45 101 61 26 24 41 30 62 26 43 -8 46 22
6 63 -38 39 -74 43 -74 7 -1 -31 -30 -60 -99 -93 -128 -63 -248 -62 -368 2
-66 35 -92 61 -93 91 0 34 -30 31 -71 -6z"/>
<path d="M1810 2050 l0 -240 55 0 55 0 0 38 c0 28 7 45 24 61 l24 22 47 -60
48 -61 68 0 c38 0 69 3 69 6 0 3 -33 47 -73 97 l-74 93 69 74 68 75 -67 3 -66
3 -61 -61 c-34 -33 -65 -60 -69 -60 -4 0 -7 56 -7 125 l0 125 -55 0 -55 0 0
-240z"/>
<path d="M775 2261 c-72 -18 -133 -67 -162 -131 -20 -45 -20 -145 1 -192 51
-117 216 -173 341 -114 28 12 56 31 64 40 13 15 11 21 -21 53 l-36 36 -32 -23
c-48 -34 -107 -37 -150 -8 -48 32 -62 63 -57 126 8 108 117 156 209 91 l30
-22 36 37 37 37 -30 25 c-54 44 -153 63 -230 45z"/>
<path d="M251 2215 c-12 -26 -21 -49 -21 -51 0 -2 33 -4 73 -4 59 0 77 -4 90
-18 18 -20 22 -68 9 -90 -13 -19 -70 -32 -143 -32 l-67 0 -41 -97 c-23 -54
-41 -101 -41 -105 0 -5 26 -8 59 -8 l59 0 22 59 22 59 77 3 c65 3 85 9 120 32
68 45 89 131 49 206 -31 59 -80 85 -175 89 l-71 4 -21 -47z"/>
<path d="M2260 2211 l0 -51 123 0 c138 0 157 -8 157 -67 0 -56 -27 -68 -161
-72 l-119 -3 0 -104 0 -104 65 0 65 0 0 59 0 58 83 5 c95 5 137 24 170 78 28
45 29 123 2 169 -36 61 -80 76 -242 79 l-143 3 0 -50z"/>
<path d="M1108 2193 c-3 -41 -6 -48 -25 -51 -19 -3 -23 -10 -23 -42 0 -32 4
-39 23 -42 20 -3 22 -9 27 -93 3 -49 10 -100 17 -111 18 -32 89 -57 138 -50
63 10 69 17 51 60 -13 31 -19 36 -36 31 -37 -12 -50 11 -50 91 l0 74 40 0 40
0 0 40 0 40 -40 0 -40 0 0 50 0 50 -59 0 -60 0 -3 -47z"/>
<path d="M1462 2139 c-61 -30 -93 -83 -94 -151 0 -31 6 -67 16 -85 47 -92 201
-130 295 -72 17 10 31 22 31 27 0 5 -13 21 -30 37 -22 21 -32 25 -43 17 -7 -6
-31 -14 -53 -17 -31 -5 -45 -2 -67 15 -15 12 -27 26 -27 31 0 5 55 9 125 9
l125 0 0 43 c-1 129 -152 208 -278 146z m145 -81 c40 -38 30 -48 -46 -48 -39
0 -73 4 -76 10 -10 16 42 60 71 60 15 0 38 -10 51 -22z"/>
<path d="M2740 1985 l0 -175 60 0 60 0 0 98 c0 116 11 139 71 148 l39 7 0 50
0 50 -36 -6 c-20 -3 -44 -13 -54 -22 -22 -20 -30 -19 -30 5 0 18 -7 20 -55 20
l-55 0 0 -175z"/>
<path d="M3120 2149 c-32 -13 -78 -56 -96 -91 -18 -35 -18 -109 0 -152 28 -66
131 -115 214 -100 148 26 214 189 119 293 -49 53 -167 78 -237 50z m135 -104
c51 -51 18 -145 -51 -145 -47 0 -74 29 -74 80 0 49 35 90 75 90 14 0 37 -11
50 -25z"/>
<path d="M727 1673 c-4 -3 -7 -37 -7 -75 l0 -68 35 0 c43 0 85 37 85 75 0 35
-42 75 -78 75 -16 0 -32 -3 -35 -7z m82 -28 c7 -7 14 -25 14 -40 0 -32 -18
-51 -55 -60 l-28 -7 0 59 c0 33 3 63 7 66 9 9 44 -1 62 -18z"/>
<path d="M880 1605 c0 -43 4 -75 10 -75 6 0 10 32 10 75 0 43 -4 75 -10 75 -6
0 -10 -32 -10 -75z"/>
<path d="M1010 1605 l0 -75 31 0 c17 0 39 5 50 10 20 11 26 45 9 55 -5 3 -7
19 -4 34 7 33 -15 51 -60 51 -26 0 -26 -1 -26 -75z m65 52 c24 -18 11 -37 -26
-37 -21 0 -29 5 -29 18 0 34 23 42 55 19z m22 -73 c8 -21 -21 -44 -54 -44 -19
0 -23 5 -23 30 0 28 3 30 35 30 24 0 38 -5 42 -16z"/>
<path d="M1163 1654 c-20 -20 -24 -31 -19 -57 12 -64 82 -88 124 -44 29 31 29
77 -1 105 -31 30 -72 28 -104 -4z m93 -7 c22 -19 26 -29 20 -50 -9 -39 -50
-63 -82 -48 -48 21 -50 84 -3 108 32 17 34 17 65 -10z"/>
<path d="M1338 1674 c-5 -4 -8 -38 -8 -76 l0 -68 51 0 c31 0 48 4 44 10 -3 6
-21 10 -40 10 l-34 0 -3 66 c-2 36 -6 62 -10 58z"/>
<path d="M1468 1674 c-5 -4 -8 -38 -8 -76 l0 -68 51 0 c31 0 48 4 44 10 -3 6
-21 10 -40 10 l-34 0 -3 66 c-2 36 -6 62 -10 58z"/>
<path d="M1590 1605 c0 -43 4 -75 10 -75 6 0 10 32 10 75 0 43 -4 75 -10 75
-6 0 -10 -32 -10 -75z"/>
<path d="M1712 1603 c1 -43 3 -61 5 -41 4 34 7 37 41 41 l37 4 -38 1 c-36 2
-38 4 -35 30 3 24 8 28 48 33 l45 6 -52 1 -53 2 2 -77z"/>
<path d="M1850 1605 l0 -75 53 2 52 2 -47 3 c-45 4 -48 6 -48 33 0 26 4 29 38
33 l37 4 -38 1 c-36 2 -38 4 -35 30 3 24 8 28 48 33 l45 6 -52 1 -53 2 0 -75z"/>
<path d="M1990 1605 c0 -74 0 -75 26 -75 28 0 65 16 76 34 4 6 8 25 8 41 0 17
-4 35 -8 41 -11 18 -48 34 -76 34 -26 0 -26 -1 -26 -75z m83 32 c12 -14 16
-29 12 -46 -9 -35 -16 -41 -51 -44 -28 -2 -29 0 -32 47 -2 27 -1 55 2 63 8 19
45 8 69 -20z"/>
<path d="M2150 1605 l0 -75 53 2 52 2 -47 3 c-45 4 -48 6 -48 33 0 25 4 29 33
33 l32 4 -33 1 c-30 2 -33 5 -30 30 3 24 8 28 48 33 l45 6 -52 1 -53 2 0 -75z"/>
<path d="M2292 1603 l2 -78 3 68 c4 67 4 68 31 65 32 -4 42 -34 16 -52 -16
-12 -16 -15 5 -45 27 -38 42 -34 17 4 -15 23 -15 27 -1 41 19 19 19 24 -1 52
-10 14 -25 22 -45 22 l-29 0 2 -77z"/>
<path d="M2417 1673 c-11 -10 -8 -131 3 -138 6 -4 10 22 10 69 0 76 -1 82 -13
69z"/>
<path d="M2495 1655 c-58 -57 2 -148 79 -119 9 3 16 10 16 15 0 6 -9 5 -20 -1
-27 -14 -57 -4 -76 24 -30 47 26 113 75 87 11 -7 21 -8 21 -2 0 5 -7 12 -16
15 -30 12 -55 6 -79 -19z"/>
<path d="M2656 1659 c-36 -28 -36 -80 0 -108 50 -39 108 -16 120 46 5 26 1 37
-19 57 -31 31 -65 33 -101 5z m84 -7 c14 -11 23 -29 23 -47 0 -29 -32 -65 -58
-65 -23 0 -65 41 -65 64 0 23 22 49 50 59 24 9 27 8 50 -11z"/>
</g>
</svg>
