<?xml version="1.0" standalone="no"?>
<!DOCTYPE svg PUBLIC "-//W3C//DTD SVG 20010904//EN"
 "http://www.w3.org/TR/2001/REC-SVG-20010904/DTD/svg10.dtd">
<svg version="1.0" xmlns="http://www.w3.org/2000/svg"
 width="1142.000000pt" height="314.000000pt" viewBox="0 0 1142.000000 314.000000"
 preserveAspectRatio="xMidYMid meet">

<g transform="translate(0.000000,314.000000) scale(0.100000,-0.100000)"
fill="#000000" stroke="none">
<path d="M3102 1543 c3 -1120 3 -1128 23 -1128 20 0 20 8 23 1128 l2 1127 -25
0 -25 0 2 -1127z"/>
<path d="M1395 2610 c-262 -34 -530 -186 -694 -395 -89 -113 -171 -273 -200
-390 -42 -166 -49 -284 -26 -433 66 -438 372 -781 793 -892 504 -132 1028 119
1249 597 67 145 93 271 93 448 0 185 -31 319 -111 479 -57 112 -113 191 -194
271 -151 152 -314 243 -525 296 -88 22 -285 32 -385 19z m285 -395 c102 -16
226 -119 283 -235 l32 -65 1 -250 c1 -137 -2 -326 -7 -420 -7 -124 -6 -191 3
-248 14 -94 7 -111 -47 -115 -65 -6 -187 64 -301 171 l-51 48 -12 -48 c-23
-94 -59 -143 -103 -143 -28 0 -22 36 12 79 41 50 59 171 41 276 -18 104 -19
105 -86 50 -32 -25 -69 -51 -84 -57 -121 -48 -164 -18 -197 141 -12 56 -20 71
-59 106 -34 31 -45 49 -45 71 0 30 4 38 59 138 29 51 32 64 27 110 -23 211
-17 280 27 309 31 20 155 47 217 47 28 0 61 5 73 12 25 13 134 36 157 33 8 -2
35 -6 60 -10z"/>
<path d="M1546 2186 c-49 -15 -56 -31 -19 -39 15 -3 47 -22 70 -41 22 -20 44
-36 48 -36 4 0 -5 20 -18 45 -14 25 -21 45 -16 45 21 0 111 -52 161 -93 71
-58 79 -62 71 -40 -14 38 -70 98 -127 135 -64 41 -98 46 -170 24z"/>
<path d="M1289 2141 c-36 -10 -71 -21 -77 -25 -24 -14 -11 -25 23 -19 27 4 36
2 41 -11 6 -15 10 -14 34 9 31 30 50 26 50 -10 0 -30 32 -135 41 -135 7 0 19
102 19 166 0 43 -1 44 -32 43 -18 0 -63 -8 -99 -18z"/>
<path d="M1192 1727 c-23 -30 -72 -128 -72 -146 0 -11 14 -29 30 -41 37 -27
57 -63 71 -132 18 -91 28 -108 61 -108 44 0 91 26 149 81 38 36 59 49 82 49
29 0 29 1 23 38 -3 20 -6 45 -6 55 0 11 -12 22 -30 29 -78 27 -190 91 -241
137 -43 38 -59 48 -67 38z"/>
<path d="M5402 2513 c-6 -10 -71 -184 -147 -388 -75 -203 -165 -446 -200 -540
l-63 -170 -38 -5 c-20 -3 -39 -11 -42 -17 -3 -10 26 -13 122 -13 105 0 126 2
126 15 0 12 -13 15 -60 15 -33 0 -60 1 -60 3 0 2 16 48 36 103 20 54 47 132
61 172 l25 72 164 -2 165 -3 54 -160 c30 -88 55 -165 55 -172 0 -7 -20 -13
-52 -15 -30 -2 -53 -8 -56 -16 -3 -10 51 -12 262 -10 169 2 266 7 266 13 1 6
-16 12 -37 15 -35 5 -38 8 -59 65 -51 137 -106 289 -159 435 -101 277 -132
363 -180 493 l-48 127 -63 0 c-50 0 -65 -4 -72 -17z m8 -516 c34 -103 59 -191
56 -195 -5 -9 -271 -10 -280 -1 -3 2 8 40 24 84 16 44 47 131 69 193 47 133
51 140 62 121 4 -8 35 -99 69 -202z"/>
<path d="M3715 2510 c-7 -12 8 -18 55 -22 l35 -3 3 -537 2 -538 -50 0 c-38 0
-50 -4 -50 -15 0 -13 35 -15 255 -15 216 0 255 2 255 14 0 11 -14 16 -47 18
l-48 3 0 260 0 260 163 3 162 2 0 -264 0 -265 -47 -3 c-26 -2 -48 -9 -51 -15
-3 -10 52 -13 252 -13 221 0 256 2 256 15 0 11 -12 15 -45 15 l-45 0 0 540 0
540 45 0 c34 0 45 4 45 15 0 13 -32 15 -250 13 -156 -2 -251 -7 -253 -13 -1
-5 18 -12 43 -15 l45 -5 0 -250 0 -250 -153 0 c-84 0 -157 2 -163 5 -6 4 -8
99 -7 251 l3 244 45 5 c25 3 44 10 43 15 -4 14 -489 19 -498 5z"/>
<path d="M6080 2506 c0 -10 14 -16 43 -18 l42 -3 3 -537 2 -538 -45 0 c-34 0
-45 -4 -45 -15 0 -13 31 -15 245 -13 153 2 246 7 248 13 1 6 -18 12 -43 15
l-45 5 0 535 0 535 43 3 c28 2 42 8 42 18 0 12 -38 14 -245 14 -207 0 -245 -2
-245 -14z"/>
<path d="M6647 2514 c-14 -15 7 -24 54 -24 l49 0 0 -539 0 -540 -52 -3 c-30
-2 -53 -8 -56 -15 -3 -10 54 -13 262 -13 230 0 266 2 266 15 0 11 -12 15 -50
15 l-50 0 2 273 3 272 37 3 c20 2 54 -2 76 -8 59 -15 69 -45 75 -225 9 -244
31 -303 127 -342 93 -38 234 -27 288 21 32 29 51 66 62 128 14 71 -4 86 -23
20 -24 -78 -34 -92 -67 -92 -16 0 -32 6 -37 13 -4 6 -10 82 -14 167 -4 126 -9
163 -26 201 -24 54 -71 93 -130 108 -65 18 -57 31 27 46 51 9 111 55 140 105
22 39 25 57 25 140 0 77 -4 102 -22 135 -42 80 -107 115 -242 134 -88 12 -713
16 -724 5z m588 -48 c53 -35 60 -58 60 -211 0 -120 -3 -146 -20 -179 -30 -59
-64 -79 -140 -84 l-65 -4 0 252 0 253 70 -5 c40 -3 80 -12 95 -22z"/>
<path d="M3760 862 c-6 -2 -10 -96 -10 -248 l0 -244 100 0 c148 0 220 33 265
124 44 89 32 225 -27 292 -49 56 -80 67 -206 73 -62 3 -117 5 -122 3z m200
-55 c91 -33 120 -79 120 -189 0 -137 -56 -192 -195 -193 l-80 0 -3 185 c-1
101 0 190 2 197 7 17 109 17 156 0z"/>
<path d="M4640 862 c-6 -2 -10 -96 -10 -248 l0 -244 110 0 c121 0 159 10 199
53 29 32 39 109 19 147 -7 13 -30 34 -50 45 l-36 20 33 22 c45 30 61 79 41
126 -24 58 -53 70 -182 76 -63 4 -119 5 -124 3z m205 -57 c40 -16 57 -50 46
-92 -10 -39 -44 -53 -133 -53 l-78 0 0 73 c0 41 3 77 7 80 12 13 123 7 158 -8z
m26 -218 c28 -19 35 -30 37 -65 3 -36 -1 -47 -27 -72 -28 -29 -33 -30 -115
-30 l-86 0 0 88 c0 49 3 92 7 95 3 4 39 7 78 7 58 0 78 -4 106 -23z"/>
<path d="M6356 862 c-3 -3 -6 -115 -6 -249 l0 -243 25 0 25 0 0 244 c0 233 -1
244 -19 249 -11 3 -22 2 -25 -1z"/>
<path d="M7530 862 c-6 -2 -10 -97 -10 -248 l0 -244 141 0 c140 0 140 0 137
23 -3 21 -8 22 -110 25 l-108 3 0 94 0 95 106 0 c104 0 105 0 102 23 -3 21 -8
22 -106 25 l-103 3 3 77 3 77 108 3 c98 2 107 4 107 22 0 17 -10 19 -130 22
-72 2 -135 2 -140 0z"/>
<path d="M4250 614 l0 -245 28 3 27 3 3 243 2 242 -30 0 -30 0 0 -246z"/>
<path d="M5194 852 c-44 -15 -93 -58 -115 -100 -46 -94 -32 -244 32 -316 53
-61 172 -84 261 -50 95 37 133 107 132 240 -1 94 -24 147 -87 197 -34 28 -45
31 -120 33 -45 2 -91 0 -103 -4z m150 -48 c64 -22 94 -68 102 -155 8 -82 -8
-141 -51 -187 -33 -36 -35 -37 -108 -37 -85 0 -116 16 -152 76 -28 48 -29 191
-1 234 23 35 49 55 91 72 42 16 64 15 119 -3z"/>
<path d="M5620 615 l0 -246 138 3 c129 3 137 4 137 23 0 19 -8 20 -105 23 -68
2 -107 7 -112 15 -5 7 -8 104 -7 217 l1 205 -26 3 -26 3 0 -246z"/>
<path d="M5980 615 l0 -245 141 0 c140 0 140 0 137 23 -3 21 -8 22 -110 25
l-108 3 0 219 0 220 -30 0 -30 0 0 -245z"/>
<path d="M6829 813 c-12 -26 -43 -104 -69 -173 -27 -69 -60 -153 -74 -187 -32
-78 -32 -85 0 -81 22 3 30 14 56 81 l30 78 100 -3 101 -3 31 -75 c28 -66 35
-75 60 -78 24 -3 28 -1 21 15 -4 10 -11 29 -15 43 -5 14 -44 115 -88 225 -73
185 -81 200 -106 203 -23 3 -29 -3 -47 -45z m86 -121 c19 -50 35 -96 35 -102
0 -6 -30 -10 -75 -10 -88 0 -87 -2 -47 102 16 40 32 82 36 92 3 10 8 17 11 15
2 -3 20 -46 40 -97z"/>
<path d="M7160 615 l0 -245 141 0 c140 0 140 0 137 23 -3 21 -8 22 -110 25
l-108 3 0 219 0 220 -30 0 -30 0 0 -245z"/>
<path d="M7950 842 c-43 -23 -60 -54 -60 -109 0 -60 33 -94 130 -133 116 -47
144 -90 96 -147 -22 -26 -30 -28 -98 -28 -40 0 -88 4 -105 8 -31 8 -33 7 -33
-17 0 -20 7 -27 38 -35 55 -16 146 -13 192 5 54 22 80 60 80 117 0 56 -30 96
-92 121 -95 39 -133 62 -146 89 -19 39 2 77 52 96 34 13 45 13 97 -1 55 -15
60 -15 68 1 18 33 -3 43 -95 48 -75 4 -95 1 -124 -15z"/>
<path d="M8335 845 c-49 -25 -65 -52 -65 -105 0 -68 29 -99 129 -140 93 -37
111 -54 111 -102 0 -55 -27 -73 -114 -73 -39 0 -86 4 -103 8 -31 8 -33 7 -33
-16 0 -32 40 -47 128 -47 115 0 182 51 182 138 0 59 -34 94 -123 128 -76 29
-127 70 -127 101 0 60 74 93 160 70 50 -14 56 -14 68 1 23 30 -9 45 -100 49
-62 3 -90 0 -113 -12z"/>
<path d="M8767 773 c-49 -119 -157 -393 -157 -399 0 -2 12 -4 28 -4 24 0 30 8
57 78 l30 77 101 3 101 3 30 -78 c26 -67 34 -78 57 -81 14 -2 26 0 26 5 0 5
-34 96 -76 203 -41 107 -83 214 -92 238 -13 35 -21 42 -43 42 -24 0 -30 -9
-62 -87z m101 -75 c16 -46 33 -91 37 -100 6 -16 -1 -18 -74 -18 -45 0 -81 3
-81 8 0 4 13 41 28 82 16 41 32 83 35 93 12 32 24 17 55 -65z"/>
<path d="M9120 615 l0 -246 23 3 c22 3 22 4 23 195 0 106 3 195 6 198 3 3 64
-85 136 -195 123 -187 133 -200 162 -200 l30 0 0 245 0 245 -25 0 -25 0 0
-202 0 -203 -133 200 c-123 186 -134 200 -165 203 l-32 3 0 -246z"/>
<path d="M9640 616 l0 -246 103 0 c112 1 157 13 213 55 54 41 74 93 74 196 0
105 -23 158 -91 204 -42 29 -49 30 -171 34 l-128 3 0 -246z m211 193 c62 -21
97 -55 114 -111 29 -99 8 -188 -58 -241 -33 -28 -46 -31 -122 -35 l-85 -5 0
195 c0 107 3 198 7 201 10 11 107 8 144 -4z"/>
<path d="M10150 616 l0 -246 25 0 c24 0 24 1 27 103 l3 102 51 3 51 3 63 -106
c56 -95 65 -105 91 -105 16 0 29 3 29 6 0 3 -27 50 -60 103 -33 54 -60 103
-60 110 0 6 11 16 25 21 37 14 65 67 65 123 0 40 -5 53 -34 85 l-34 37 -121 4
-121 3 0 -246z m217 178 c36 -27 44 -98 16 -132 -21 -26 -115 -49 -156 -38
-27 6 -27 7 -27 95 0 48 3 91 8 95 15 16 131 1 159 -20z"/>
<path d="M10677 798 c-37 -91 -167 -419 -167 -424 0 -2 12 -4 28 -4 25 0 30 7
57 78 l30 77 102 3 101 3 30 -78 c25 -68 33 -78 56 -81 15 -2 26 2 26 8 0 11
-63 175 -148 387 -33 84 -40 93 -63 93 -23 0 -29 -8 -52 -62z m91 -103 c17
-44 33 -88 37 -97 6 -16 -1 -18 -74 -18 -45 0 -81 3 -81 7 0 21 75 202 81 196
4 -4 21 -44 37 -88z"/>
</g>
</svg>
